%TF.GenerationSoftware,KiCad,Pcbnew,8.0.5*%
%TF.CreationDate,2025-03-03T20:32:12+01:00*%
%TF.ProjectId,Tester backlight LED,54657374-6572-4206-9261-636b6c696768,rev?*%
%TF.SameCoordinates,Original*%
%TF.FileFunction,Soldermask,Top*%
%TF.FilePolarity,Negative*%
%FSLAX46Y46*%
G04 Gerber Fmt 4.6, Leading zero omitted, Abs format (unit mm)*
G04 Created by KiCad (PCBNEW 8.0.5) date 2025-03-03 20:32:12*
%MOMM*%
%LPD*%
G01*
G04 APERTURE LIST*
G04 Aperture macros list*
%AMRoundRect*
0 Rectangle with rounded corners*
0 $1 Rounding radius*
0 $2 $3 $4 $5 $6 $7 $8 $9 X,Y pos of 4 corners*
0 Add a 4 corners polygon primitive as box body*
4,1,4,$2,$3,$4,$5,$6,$7,$8,$9,$2,$3,0*
0 Add four circle primitives for the rounded corners*
1,1,$1+$1,$2,$3*
1,1,$1+$1,$4,$5*
1,1,$1+$1,$6,$7*
1,1,$1+$1,$8,$9*
0 Add four rect primitives between the rounded corners*
20,1,$1+$1,$2,$3,$4,$5,0*
20,1,$1+$1,$4,$5,$6,$7,0*
20,1,$1+$1,$6,$7,$8,$9,0*
20,1,$1+$1,$8,$9,$2,$3,0*%
G04 Aperture macros list end*
%ADD10O,3.000000X1.600000*%
%ADD11R,3.000000X3.000000*%
%ADD12C,3.000000*%
%ADD13C,4.000000*%
%ADD14O,2.000000X2.000000*%
%ADD15R,3.000000X2.000000*%
%ADD16O,3.000000X2.000000*%
%ADD17R,1.905000X3.000000*%
%ADD18O,1.905000X3.000000*%
%ADD19R,3.000000X1.800000*%
%ADD20O,3.000000X1.800000*%
%ADD21R,2.500000X1.800000*%
%ADD22O,2.500000X1.800000*%
%ADD23O,3.000000X3.000000*%
%ADD24RoundRect,0.250000X-0.725000X0.600000X-0.725000X-0.600000X0.725000X-0.600000X0.725000X0.600000X0*%
%ADD25O,1.950000X1.700000*%
%ADD26R,2.200000X2.200000*%
%ADD27O,2.200000X2.200000*%
%ADD28C,2.000000*%
G04 APERTURE END LIST*
D10*
%TO.C,J7*%
X209245200Y-95097600D03*
X209245200Y-97637600D03*
%TD*%
D11*
%TO.C,J1*%
X191414400Y-101752400D03*
D12*
X196494400Y-101752400D03*
%TD*%
D13*
%TO.C,J6*%
X127558800Y-104000000D03*
%TD*%
D14*
%TO.C,R1*%
X205282800Y-92098800D03*
X195122800Y-92098800D03*
%TD*%
D11*
%TO.C,C4*%
X163808600Y-99456800D03*
D12*
X163808600Y-103256800D03*
%TD*%
D14*
%TO.C,R3*%
X183032400Y-72593200D03*
X172872400Y-72593200D03*
%TD*%
D11*
%TO.C,C5*%
X177901600Y-98856800D03*
D12*
X177901600Y-103856800D03*
%TD*%
D11*
%TO.C,J2*%
X146913600Y-101854000D03*
D12*
X151993600Y-101854000D03*
%TD*%
D14*
%TO.C,C2*%
X192735200Y-79796800D03*
X192735200Y-84796800D03*
%TD*%
D15*
%TO.C,RV1*%
X180503200Y-84536800D03*
D16*
X178003200Y-79536800D03*
X175503200Y-84536800D03*
%TD*%
D14*
%TO.C,R5*%
X183083200Y-92098800D03*
X172923200Y-92098800D03*
%TD*%
D17*
%TO.C,Q2*%
X146862800Y-72850600D03*
D18*
X149402800Y-72850600D03*
X151942800Y-72850600D03*
%TD*%
D19*
%TO.C,U2*%
X205323600Y-86096800D03*
D20*
X205323600Y-83556800D03*
X205323600Y-81016800D03*
X205323600Y-78476800D03*
X197703600Y-78476800D03*
X197703600Y-81016800D03*
X197703600Y-83556800D03*
X197703600Y-86096800D03*
%TD*%
D14*
%TO.C,R2*%
X198069200Y-72542400D03*
X187909200Y-72542400D03*
%TD*%
D13*
%TO.C,J4*%
X207000000Y-104000000D03*
%TD*%
D14*
%TO.C,R4*%
X153924000Y-77419200D03*
X153924000Y-87579200D03*
%TD*%
D13*
%TO.C,J5*%
X127558800Y-71950000D03*
%TD*%
D21*
%TO.C,Q1*%
X186025200Y-79756800D03*
D22*
X186025200Y-82296800D03*
X186025200Y-84836800D03*
%TD*%
D23*
%TO.C,R6*%
X134874000Y-73863200D03*
X134874000Y-101803200D03*
%TD*%
D14*
%TO.C,C3*%
X146812000Y-80035600D03*
X146812000Y-85035600D03*
%TD*%
D24*
%TO.C,J8*%
X127000000Y-84734400D03*
D25*
X127000000Y-87234400D03*
X127000000Y-89734400D03*
%TD*%
D14*
%TO.C,C1*%
X186639200Y-92098800D03*
X191639200Y-92098800D03*
%TD*%
D12*
%TO.C,L1*%
X159664400Y-82143200D03*
X161366200Y-82143200D03*
X166370000Y-82143200D03*
X168044400Y-82143200D03*
%TD*%
D26*
%TO.C,D1*%
X144221200Y-92100400D03*
D27*
X154381200Y-92100400D03*
%TD*%
D13*
%TO.C,J3*%
X207000000Y-71950000D03*
%TD*%
D28*
X209397600Y-83464400D03*
X209397600Y-88544400D03*
M02*
