M48
; DRILL file {KiCad 8.0.5} date 2025-03-03T20:32:59+0100
; FORMAT={-:-/ absolute / inch / decimal}
; #@! TF.CreationDate,2025-03-03T20:32:59+01:00
; #@! TF.GenerationSoftware,Kicad,Pcbnew,8.0.5
; #@! TF.FileFunction,Plated,1,2,PTH
FMAT,2
INCH
; #@! TA.AperFunction,Plated,PTH,ComponentDrill
T1C0.0276
; #@! TA.AperFunction,Plated,PTH,ViaDrill
T2C0.0315
; #@! TA.AperFunction,Plated,PTH,ComponentDrill
T3C0.0315
; #@! TA.AperFunction,Plated,PTH,ComponentDrill
T4C0.0374
; #@! TA.AperFunction,Plated,PTH,ComponentDrill
T5C0.0394
; #@! TA.AperFunction,Plated,PTH,ComponentDrill
T6C0.0433
; #@! TA.AperFunction,Plated,PTH,ComponentDrill
T7C0.0472
; #@! TA.AperFunction,Plated,PTH,ComponentDrill
T8C0.0591
; #@! TA.AperFunction,Plated,PTH,ComponentDrill
T9C0.0598
; #@! TA.AperFunction,Plated,PTH,ComponentDrill
T10C0.1181
%
G90
G05
T1
X8.238Y-3.744
X8.238Y-3.844
T2
X8.244Y-3.286
X8.244Y-3.486
T3
X5.78Y-3.151
X5.78Y-3.3479
X6.06Y-3.048
X6.06Y-3.448
X6.806Y-2.858
X6.808Y-3.6259
X6.9096Y-3.3282
X7.008Y-3.1314
X7.206Y-2.858
X7.208Y-3.6259
X7.3238Y-3.14
X7.3238Y-3.24
X7.3238Y-3.34
X7.348Y-3.6259
X7.398Y-2.856
X7.5449Y-3.6259
X7.588Y-3.1416
X7.588Y-3.3385
X7.682Y-3.6259
X7.7836Y-3.0896
X7.7836Y-3.1896
X7.7836Y-3.2896
X7.7836Y-3.3896
X7.798Y-2.856
X8.082Y-3.6259
X8.0836Y-3.0896
X8.0836Y-3.1896
X8.0836Y-3.2896
X8.0836Y-3.3896
T4
X5.0Y-3.336
X5.0Y-3.4344
X5.0Y-3.5329
T5
X6.4492Y-3.9156
X6.4492Y-4.0652
X7.004Y-3.892
X7.004Y-4.0889
X7.1064Y-3.3282
T6
X5.678Y-3.626
X5.782Y-2.8681
X5.882Y-2.8681
X5.982Y-2.8681
X6.078Y-3.626
T7
X5.31Y-2.908
X5.31Y-4.008
T8
X6.286Y-3.234
X6.353Y-3.234
X6.55Y-3.234
X6.6159Y-3.234
T9
X5.784Y-4.01
X5.984Y-4.01
X7.536Y-4.006
X7.736Y-4.006
T10
X5.022Y-2.8327
X5.022Y-4.0945
X8.1496Y-2.8327
X8.1496Y-4.0945
M30
