%TF.GenerationSoftware,KiCad,Pcbnew,8.0.5*%
%TF.CreationDate,2025-03-03T20:32:12+01:00*%
%TF.ProjectId,Tester backlight LED,54657374-6572-4206-9261-636b6c696768,rev?*%
%TF.SameCoordinates,Original*%
%TF.FileFunction,Copper,L1,Top*%
%TF.FilePolarity,Positive*%
%FSLAX46Y46*%
G04 Gerber Fmt 4.6, Leading zero omitted, Abs format (unit mm)*
G04 Created by KiCad (PCBNEW 8.0.5) date 2025-03-03 20:32:12*
%MOMM*%
%LPD*%
G01*
G04 APERTURE LIST*
G04 Aperture macros list*
%AMRoundRect*
0 Rectangle with rounded corners*
0 $1 Rounding radius*
0 $2 $3 $4 $5 $6 $7 $8 $9 X,Y pos of 4 corners*
0 Add a 4 corners polygon primitive as box body*
4,1,4,$2,$3,$4,$5,$6,$7,$8,$9,$2,$3,0*
0 Add four circle primitives for the rounded corners*
1,1,$1+$1,$2,$3*
1,1,$1+$1,$4,$5*
1,1,$1+$1,$6,$7*
1,1,$1+$1,$8,$9*
0 Add four rect primitives between the rounded corners*
20,1,$1+$1,$2,$3,$4,$5,0*
20,1,$1+$1,$4,$5,$6,$7,0*
20,1,$1+$1,$6,$7,$8,$9,0*
20,1,$1+$1,$8,$9,$2,$3,0*%
G04 Aperture macros list end*
%TA.AperFunction,ComponentPad*%
%ADD10O,3.000000X1.600000*%
%TD*%
%TA.AperFunction,ComponentPad*%
%ADD11R,3.000000X3.000000*%
%TD*%
%TA.AperFunction,ComponentPad*%
%ADD12C,3.000000*%
%TD*%
%TA.AperFunction,ComponentPad*%
%ADD13C,4.000000*%
%TD*%
%TA.AperFunction,ComponentPad*%
%ADD14O,2.000000X2.000000*%
%TD*%
%TA.AperFunction,ComponentPad*%
%ADD15R,3.000000X2.000000*%
%TD*%
%TA.AperFunction,ComponentPad*%
%ADD16O,3.000000X2.000000*%
%TD*%
%TA.AperFunction,ComponentPad*%
%ADD17R,1.905000X3.000000*%
%TD*%
%TA.AperFunction,ComponentPad*%
%ADD18O,1.905000X3.000000*%
%TD*%
%TA.AperFunction,ComponentPad*%
%ADD19R,3.000000X1.800000*%
%TD*%
%TA.AperFunction,ComponentPad*%
%ADD20O,3.000000X1.800000*%
%TD*%
%TA.AperFunction,ComponentPad*%
%ADD21R,2.500000X1.800000*%
%TD*%
%TA.AperFunction,ComponentPad*%
%ADD22O,2.500000X1.800000*%
%TD*%
%TA.AperFunction,ComponentPad*%
%ADD23O,3.000000X3.000000*%
%TD*%
%TA.AperFunction,ComponentPad*%
%ADD24RoundRect,0.250000X-0.725000X0.600000X-0.725000X-0.600000X0.725000X-0.600000X0.725000X0.600000X0*%
%TD*%
%TA.AperFunction,ComponentPad*%
%ADD25O,1.950000X1.700000*%
%TD*%
%TA.AperFunction,ComponentPad*%
%ADD26R,2.200000X2.200000*%
%TD*%
%TA.AperFunction,ComponentPad*%
%ADD27O,2.200000X2.200000*%
%TD*%
%TA.AperFunction,ViaPad*%
%ADD28C,2.000000*%
%TD*%
%TA.AperFunction,Conductor*%
%ADD29C,0.900000*%
%TD*%
G04 APERTURE END LIST*
D10*
%TO.P,J7,1,Pin_1*%
%TO.N,+12V*%
X209245200Y-95097600D03*
%TO.P,J7,2,Pin_2*%
X209245200Y-97637600D03*
%TD*%
D11*
%TO.P,J1,1,Pin_1*%
%TO.N,+12V*%
X191414400Y-101752400D03*
D12*
%TO.P,J1,2,Pin_2*%
%TO.N,GND*%
X196494400Y-101752400D03*
%TD*%
D13*
%TO.P,J6,1,Pin_1*%
%TO.N,GND*%
X127558800Y-104000000D03*
%TD*%
D14*
%TO.P,R1,1*%
%TO.N,+12V*%
X205282800Y-92098800D03*
%TO.P,R1,2*%
%TO.N,Net-(U2-DIS)*%
X195122800Y-92098800D03*
%TD*%
D11*
%TO.P,C4,1*%
%TO.N,Net-(D1-K)*%
X163808600Y-99456800D03*
D12*
%TO.P,C4,2*%
%TO.N,GND*%
X163808600Y-103256800D03*
%TD*%
D14*
%TO.P,R3,1*%
%TO.N,Net-(U2-Q)*%
X183032400Y-72593200D03*
%TO.P,R3,2*%
%TO.N,Net-(Q2-G)*%
X172872400Y-72593200D03*
%TD*%
D11*
%TO.P,C5,1*%
%TO.N,+12V*%
X177901600Y-98856800D03*
D12*
%TO.P,C5,2*%
%TO.N,GND*%
X177901600Y-103856800D03*
%TD*%
D11*
%TO.P,J2,1,Pin_1*%
%TO.N,Net-(J2-Pin_1)*%
X146913600Y-101854000D03*
D12*
%TO.P,J2,2,Pin_2*%
%TO.N,GND*%
X151993600Y-101854000D03*
%TD*%
D14*
%TO.P,C2,1*%
%TO.N,Net-(U2-THR)*%
X192735200Y-79796800D03*
%TO.P,C2,2*%
%TO.N,GND*%
X192735200Y-84796800D03*
%TD*%
D15*
%TO.P,RV1,1,1*%
%TO.N,GND*%
X180503200Y-84536800D03*
D16*
%TO.P,RV1,2,2*%
%TO.N,Net-(Q1-B)*%
X178003200Y-79536800D03*
%TO.P,RV1,3,3*%
%TO.N,Net-(R5-Pad1)*%
X175503200Y-84536800D03*
%TD*%
D14*
%TO.P,R5,1*%
%TO.N,Net-(R5-Pad1)*%
X183083200Y-92098800D03*
%TO.P,R5,2*%
%TO.N,Net-(D1-K)*%
X172923200Y-92098800D03*
%TD*%
D17*
%TO.P,Q2,1,G*%
%TO.N,Net-(Q2-G)*%
X146862800Y-72850600D03*
D18*
%TO.P,Q2,2,D*%
%TO.N,Net-(D1-A)*%
X149402800Y-72850600D03*
%TO.P,Q2,3,S*%
%TO.N,GND*%
X151942800Y-72850600D03*
%TD*%
D19*
%TO.P,U2,1,GND*%
%TO.N,GND*%
X205323600Y-86096800D03*
D20*
%TO.P,U2,2,TR*%
%TO.N,Net-(U2-THR)*%
X205323600Y-83556800D03*
%TO.P,U2,3,Q*%
%TO.N,Net-(U2-Q)*%
X205323600Y-81016800D03*
%TO.P,U2,4,R*%
%TO.N,+12V*%
X205323600Y-78476800D03*
%TO.P,U2,5,CV*%
%TO.N,Net-(Q1-C)*%
X197703600Y-78476800D03*
%TO.P,U2,6,THR*%
%TO.N,Net-(U2-THR)*%
X197703600Y-81016800D03*
%TO.P,U2,7,DIS*%
%TO.N,Net-(U2-DIS)*%
X197703600Y-83556800D03*
%TO.P,U2,8,VCC*%
%TO.N,+12V*%
X197703600Y-86096800D03*
%TD*%
D14*
%TO.P,R2,1*%
%TO.N,Net-(U2-THR)*%
X198069200Y-72542400D03*
%TO.P,R2,2*%
%TO.N,Net-(U2-DIS)*%
X187909200Y-72542400D03*
%TD*%
D13*
%TO.P,J4,1,Pin_1*%
%TO.N,GND*%
X207000000Y-104000000D03*
%TD*%
D14*
%TO.P,R4,1*%
%TO.N,Net-(D1-A)*%
X153924000Y-77419200D03*
%TO.P,R4,2*%
%TO.N,Net-(C3-Pad2)*%
X153924000Y-87579200D03*
%TD*%
D13*
%TO.P,J5,1,Pin_1*%
%TO.N,GND*%
X127558800Y-71950000D03*
%TD*%
D21*
%TO.P,Q1,1,C*%
%TO.N,Net-(Q1-C)*%
X186025200Y-79756800D03*
D22*
%TO.P,Q1,2,B*%
%TO.N,Net-(Q1-B)*%
X186025200Y-82296800D03*
%TO.P,Q1,3,E*%
%TO.N,GND*%
X186025200Y-84836800D03*
%TD*%
D23*
%TO.P,R6,1*%
%TO.N,Net-(D1-K)*%
X134874000Y-73863200D03*
%TO.P,R6,2*%
%TO.N,Net-(J2-Pin_1)*%
X134874000Y-101803200D03*
%TD*%
D14*
%TO.P,C3,1*%
%TO.N,GND*%
X146812000Y-80035600D03*
%TO.P,C3,2*%
%TO.N,Net-(C3-Pad2)*%
X146812000Y-85035600D03*
%TD*%
D24*
%TO.P,J8,1,Pin_1*%
%TO.N,+12V*%
X127000000Y-84734400D03*
D25*
%TO.P,J8,2,Pin_2*%
%TO.N,GND*%
X127000000Y-87234400D03*
%TO.P,J8,3,Pin_3*%
%TO.N,Net-(J2-Pin_1)*%
X127000000Y-89734400D03*
%TD*%
D14*
%TO.P,C1,1*%
%TO.N,+12V*%
X186639200Y-92098800D03*
%TO.P,C1,2*%
%TO.N,GND*%
X191639200Y-92098800D03*
%TD*%
D12*
%TO.P,L1,1*%
%TO.N,Net-(D1-A)*%
X159664400Y-82143200D03*
X161366200Y-82143200D03*
%TO.P,L1,2*%
%TO.N,+12V*%
X166370000Y-82143200D03*
X168044400Y-82143200D03*
%TD*%
D26*
%TO.P,D1,1,K*%
%TO.N,Net-(D1-K)*%
X144221200Y-92100400D03*
D27*
%TO.P,D1,2,A*%
%TO.N,Net-(D1-A)*%
X154381200Y-92100400D03*
%TD*%
D13*
%TO.P,J3,1,Pin_1*%
%TO.N,GND*%
X207000000Y-71950000D03*
%TD*%
D28*
%TO.N,+12V*%
X209397600Y-83464400D03*
X209397600Y-88544400D03*
%TD*%
D29*
%TO.N,+12V*%
X209397600Y-88544400D02*
X209397600Y-83464400D01*
%TD*%
M02*
