%TF.GenerationSoftware,KiCad,Pcbnew,8.0.5*%
%TF.CreationDate,2025-03-03T20:32:12+01:00*%
%TF.ProjectId,Tester backlight LED,54657374-6572-4206-9261-636b6c696768,rev?*%
%TF.SameCoordinates,Original*%
%TF.FileFunction,Legend,Top*%
%TF.FilePolarity,Positive*%
%FSLAX46Y46*%
G04 Gerber Fmt 4.6, Leading zero omitted, Abs format (unit mm)*
G04 Created by KiCad (PCBNEW 8.0.5) date 2025-03-03 20:32:12*
%MOMM*%
%LPD*%
G01*
G04 APERTURE LIST*
%ADD10C,0.150000*%
%ADD11C,0.120000*%
G04 APERTURE END LIST*
D10*
X193621066Y-106287219D02*
X193621066Y-107001504D01*
X193621066Y-107001504D02*
X193573447Y-107144361D01*
X193573447Y-107144361D02*
X193478209Y-107239600D01*
X193478209Y-107239600D02*
X193335352Y-107287219D01*
X193335352Y-107287219D02*
X193240114Y-107287219D01*
X194621066Y-107287219D02*
X194049638Y-107287219D01*
X194335352Y-107287219D02*
X194335352Y-106287219D01*
X194335352Y-106287219D02*
X194240114Y-106430076D01*
X194240114Y-106430076D02*
X194144876Y-106525314D01*
X194144876Y-106525314D02*
X194049638Y-106572933D01*
X200036133Y-90186819D02*
X199702800Y-89710628D01*
X199464705Y-90186819D02*
X199464705Y-89186819D01*
X199464705Y-89186819D02*
X199845657Y-89186819D01*
X199845657Y-89186819D02*
X199940895Y-89234438D01*
X199940895Y-89234438D02*
X199988514Y-89282057D01*
X199988514Y-89282057D02*
X200036133Y-89377295D01*
X200036133Y-89377295D02*
X200036133Y-89520152D01*
X200036133Y-89520152D02*
X199988514Y-89615390D01*
X199988514Y-89615390D02*
X199940895Y-89663009D01*
X199940895Y-89663009D02*
X199845657Y-89710628D01*
X199845657Y-89710628D02*
X199464705Y-89710628D01*
X200988514Y-90186819D02*
X200417086Y-90186819D01*
X200702800Y-90186819D02*
X200702800Y-89186819D01*
X200702800Y-89186819D02*
X200607562Y-89329676D01*
X200607562Y-89329676D02*
X200512324Y-89424914D01*
X200512324Y-89424914D02*
X200417086Y-89472533D01*
X158380133Y-96939603D02*
X158332514Y-96987223D01*
X158332514Y-96987223D02*
X158189657Y-97034842D01*
X158189657Y-97034842D02*
X158094419Y-97034842D01*
X158094419Y-97034842D02*
X157951562Y-96987223D01*
X157951562Y-96987223D02*
X157856324Y-96891984D01*
X157856324Y-96891984D02*
X157808705Y-96796746D01*
X157808705Y-96796746D02*
X157761086Y-96606270D01*
X157761086Y-96606270D02*
X157761086Y-96463413D01*
X157761086Y-96463413D02*
X157808705Y-96272937D01*
X157808705Y-96272937D02*
X157856324Y-96177699D01*
X157856324Y-96177699D02*
X157951562Y-96082461D01*
X157951562Y-96082461D02*
X158094419Y-96034842D01*
X158094419Y-96034842D02*
X158189657Y-96034842D01*
X158189657Y-96034842D02*
X158332514Y-96082461D01*
X158332514Y-96082461D02*
X158380133Y-96130080D01*
X159237276Y-96368175D02*
X159237276Y-97034842D01*
X158999181Y-95987223D02*
X158761086Y-96701508D01*
X158761086Y-96701508D02*
X159380133Y-96701508D01*
X177785733Y-70678019D02*
X177452400Y-70201828D01*
X177214305Y-70678019D02*
X177214305Y-69678019D01*
X177214305Y-69678019D02*
X177595257Y-69678019D01*
X177595257Y-69678019D02*
X177690495Y-69725638D01*
X177690495Y-69725638D02*
X177738114Y-69773257D01*
X177738114Y-69773257D02*
X177785733Y-69868495D01*
X177785733Y-69868495D02*
X177785733Y-70011352D01*
X177785733Y-70011352D02*
X177738114Y-70106590D01*
X177738114Y-70106590D02*
X177690495Y-70154209D01*
X177690495Y-70154209D02*
X177595257Y-70201828D01*
X177595257Y-70201828D02*
X177214305Y-70201828D01*
X178119067Y-69678019D02*
X178738114Y-69678019D01*
X178738114Y-69678019D02*
X178404781Y-70058971D01*
X178404781Y-70058971D02*
X178547638Y-70058971D01*
X178547638Y-70058971D02*
X178642876Y-70106590D01*
X178642876Y-70106590D02*
X178690495Y-70154209D01*
X178690495Y-70154209D02*
X178738114Y-70249447D01*
X178738114Y-70249447D02*
X178738114Y-70487542D01*
X178738114Y-70487542D02*
X178690495Y-70582780D01*
X178690495Y-70582780D02*
X178642876Y-70630400D01*
X178642876Y-70630400D02*
X178547638Y-70678019D01*
X178547638Y-70678019D02*
X178261924Y-70678019D01*
X178261924Y-70678019D02*
X178166686Y-70630400D01*
X178166686Y-70630400D02*
X178119067Y-70582780D01*
X172473133Y-96939603D02*
X172425514Y-96987223D01*
X172425514Y-96987223D02*
X172282657Y-97034842D01*
X172282657Y-97034842D02*
X172187419Y-97034842D01*
X172187419Y-97034842D02*
X172044562Y-96987223D01*
X172044562Y-96987223D02*
X171949324Y-96891984D01*
X171949324Y-96891984D02*
X171901705Y-96796746D01*
X171901705Y-96796746D02*
X171854086Y-96606270D01*
X171854086Y-96606270D02*
X171854086Y-96463413D01*
X171854086Y-96463413D02*
X171901705Y-96272937D01*
X171901705Y-96272937D02*
X171949324Y-96177699D01*
X171949324Y-96177699D02*
X172044562Y-96082461D01*
X172044562Y-96082461D02*
X172187419Y-96034842D01*
X172187419Y-96034842D02*
X172282657Y-96034842D01*
X172282657Y-96034842D02*
X172425514Y-96082461D01*
X172425514Y-96082461D02*
X172473133Y-96130080D01*
X173377895Y-96034842D02*
X172901705Y-96034842D01*
X172901705Y-96034842D02*
X172854086Y-96511032D01*
X172854086Y-96511032D02*
X172901705Y-96463413D01*
X172901705Y-96463413D02*
X172996943Y-96415794D01*
X172996943Y-96415794D02*
X173235038Y-96415794D01*
X173235038Y-96415794D02*
X173330276Y-96463413D01*
X173330276Y-96463413D02*
X173377895Y-96511032D01*
X173377895Y-96511032D02*
X173425514Y-96606270D01*
X173425514Y-96606270D02*
X173425514Y-96844365D01*
X173425514Y-96844365D02*
X173377895Y-96939603D01*
X173377895Y-96939603D02*
X173330276Y-96987223D01*
X173330276Y-96987223D02*
X173235038Y-97034842D01*
X173235038Y-97034842D02*
X172996943Y-97034842D01*
X172996943Y-97034842D02*
X172901705Y-96987223D01*
X172901705Y-96987223D02*
X172854086Y-96939603D01*
X149069466Y-106388819D02*
X149069466Y-107103104D01*
X149069466Y-107103104D02*
X149021847Y-107245961D01*
X149021847Y-107245961D02*
X148926609Y-107341200D01*
X148926609Y-107341200D02*
X148783752Y-107388819D01*
X148783752Y-107388819D02*
X148688514Y-107388819D01*
X149498038Y-106484057D02*
X149545657Y-106436438D01*
X149545657Y-106436438D02*
X149640895Y-106388819D01*
X149640895Y-106388819D02*
X149878990Y-106388819D01*
X149878990Y-106388819D02*
X149974228Y-106436438D01*
X149974228Y-106436438D02*
X150021847Y-106484057D01*
X150021847Y-106484057D02*
X150069466Y-106579295D01*
X150069466Y-106579295D02*
X150069466Y-106674533D01*
X150069466Y-106674533D02*
X150021847Y-106817390D01*
X150021847Y-106817390D02*
X149450419Y-107388819D01*
X149450419Y-107388819D02*
X150069466Y-107388819D01*
X192466933Y-78084380D02*
X192419314Y-78132000D01*
X192419314Y-78132000D02*
X192276457Y-78179619D01*
X192276457Y-78179619D02*
X192181219Y-78179619D01*
X192181219Y-78179619D02*
X192038362Y-78132000D01*
X192038362Y-78132000D02*
X191943124Y-78036761D01*
X191943124Y-78036761D02*
X191895505Y-77941523D01*
X191895505Y-77941523D02*
X191847886Y-77751047D01*
X191847886Y-77751047D02*
X191847886Y-77608190D01*
X191847886Y-77608190D02*
X191895505Y-77417714D01*
X191895505Y-77417714D02*
X191943124Y-77322476D01*
X191943124Y-77322476D02*
X192038362Y-77227238D01*
X192038362Y-77227238D02*
X192181219Y-77179619D01*
X192181219Y-77179619D02*
X192276457Y-77179619D01*
X192276457Y-77179619D02*
X192419314Y-77227238D01*
X192419314Y-77227238D02*
X192466933Y-77274857D01*
X192847886Y-77274857D02*
X192895505Y-77227238D01*
X192895505Y-77227238D02*
X192990743Y-77179619D01*
X192990743Y-77179619D02*
X193228838Y-77179619D01*
X193228838Y-77179619D02*
X193324076Y-77227238D01*
X193324076Y-77227238D02*
X193371695Y-77274857D01*
X193371695Y-77274857D02*
X193419314Y-77370095D01*
X193419314Y-77370095D02*
X193419314Y-77465333D01*
X193419314Y-77465333D02*
X193371695Y-77608190D01*
X193371695Y-77608190D02*
X192800267Y-78179619D01*
X192800267Y-78179619D02*
X193419314Y-78179619D01*
X177509561Y-78128019D02*
X177176228Y-77651828D01*
X176938133Y-78128019D02*
X176938133Y-77128019D01*
X176938133Y-77128019D02*
X177319085Y-77128019D01*
X177319085Y-77128019D02*
X177414323Y-77175638D01*
X177414323Y-77175638D02*
X177461942Y-77223257D01*
X177461942Y-77223257D02*
X177509561Y-77318495D01*
X177509561Y-77318495D02*
X177509561Y-77461352D01*
X177509561Y-77461352D02*
X177461942Y-77556590D01*
X177461942Y-77556590D02*
X177414323Y-77604209D01*
X177414323Y-77604209D02*
X177319085Y-77651828D01*
X177319085Y-77651828D02*
X176938133Y-77651828D01*
X177795276Y-77128019D02*
X178128609Y-78128019D01*
X178128609Y-78128019D02*
X178461942Y-77128019D01*
X179319085Y-78128019D02*
X178747657Y-78128019D01*
X179033371Y-78128019D02*
X179033371Y-77128019D01*
X179033371Y-77128019D02*
X178938133Y-77270876D01*
X178938133Y-77270876D02*
X178842895Y-77366114D01*
X178842895Y-77366114D02*
X178747657Y-77413733D01*
X177836533Y-90186819D02*
X177503200Y-89710628D01*
X177265105Y-90186819D02*
X177265105Y-89186819D01*
X177265105Y-89186819D02*
X177646057Y-89186819D01*
X177646057Y-89186819D02*
X177741295Y-89234438D01*
X177741295Y-89234438D02*
X177788914Y-89282057D01*
X177788914Y-89282057D02*
X177836533Y-89377295D01*
X177836533Y-89377295D02*
X177836533Y-89520152D01*
X177836533Y-89520152D02*
X177788914Y-89615390D01*
X177788914Y-89615390D02*
X177741295Y-89663009D01*
X177741295Y-89663009D02*
X177646057Y-89710628D01*
X177646057Y-89710628D02*
X177265105Y-89710628D01*
X178741295Y-89186819D02*
X178265105Y-89186819D01*
X178265105Y-89186819D02*
X178217486Y-89663009D01*
X178217486Y-89663009D02*
X178265105Y-89615390D01*
X178265105Y-89615390D02*
X178360343Y-89567771D01*
X178360343Y-89567771D02*
X178598438Y-89567771D01*
X178598438Y-89567771D02*
X178693676Y-89615390D01*
X178693676Y-89615390D02*
X178741295Y-89663009D01*
X178741295Y-89663009D02*
X178788914Y-89758247D01*
X178788914Y-89758247D02*
X178788914Y-89996342D01*
X178788914Y-89996342D02*
X178741295Y-90091580D01*
X178741295Y-90091580D02*
X178693676Y-90139200D01*
X178693676Y-90139200D02*
X178598438Y-90186819D01*
X178598438Y-90186819D02*
X178360343Y-90186819D01*
X178360343Y-90186819D02*
X178265105Y-90139200D01*
X178265105Y-90139200D02*
X178217486Y-90091580D01*
X149307561Y-75859257D02*
X149212323Y-75811638D01*
X149212323Y-75811638D02*
X149117085Y-75716400D01*
X149117085Y-75716400D02*
X148974228Y-75573542D01*
X148974228Y-75573542D02*
X148878990Y-75525923D01*
X148878990Y-75525923D02*
X148783752Y-75525923D01*
X148831371Y-75764019D02*
X148736133Y-75716400D01*
X148736133Y-75716400D02*
X148640895Y-75621161D01*
X148640895Y-75621161D02*
X148593276Y-75430685D01*
X148593276Y-75430685D02*
X148593276Y-75097352D01*
X148593276Y-75097352D02*
X148640895Y-74906876D01*
X148640895Y-74906876D02*
X148736133Y-74811638D01*
X148736133Y-74811638D02*
X148831371Y-74764019D01*
X148831371Y-74764019D02*
X149021847Y-74764019D01*
X149021847Y-74764019D02*
X149117085Y-74811638D01*
X149117085Y-74811638D02*
X149212323Y-74906876D01*
X149212323Y-74906876D02*
X149259942Y-75097352D01*
X149259942Y-75097352D02*
X149259942Y-75430685D01*
X149259942Y-75430685D02*
X149212323Y-75621161D01*
X149212323Y-75621161D02*
X149117085Y-75716400D01*
X149117085Y-75716400D02*
X149021847Y-75764019D01*
X149021847Y-75764019D02*
X148831371Y-75764019D01*
X149640895Y-74859257D02*
X149688514Y-74811638D01*
X149688514Y-74811638D02*
X149783752Y-74764019D01*
X149783752Y-74764019D02*
X150021847Y-74764019D01*
X150021847Y-74764019D02*
X150117085Y-74811638D01*
X150117085Y-74811638D02*
X150164704Y-74859257D01*
X150164704Y-74859257D02*
X150212323Y-74954495D01*
X150212323Y-74954495D02*
X150212323Y-75049733D01*
X150212323Y-75049733D02*
X150164704Y-75192590D01*
X150164704Y-75192590D02*
X149593276Y-75764019D01*
X149593276Y-75764019D02*
X150212323Y-75764019D01*
X196799295Y-75502419D02*
X196799295Y-76311942D01*
X196799295Y-76311942D02*
X196846914Y-76407180D01*
X196846914Y-76407180D02*
X196894533Y-76454800D01*
X196894533Y-76454800D02*
X196989771Y-76502419D01*
X196989771Y-76502419D02*
X197180247Y-76502419D01*
X197180247Y-76502419D02*
X197275485Y-76454800D01*
X197275485Y-76454800D02*
X197323104Y-76407180D01*
X197323104Y-76407180D02*
X197370723Y-76311942D01*
X197370723Y-76311942D02*
X197370723Y-75502419D01*
X197799295Y-75597657D02*
X197846914Y-75550038D01*
X197846914Y-75550038D02*
X197942152Y-75502419D01*
X197942152Y-75502419D02*
X198180247Y-75502419D01*
X198180247Y-75502419D02*
X198275485Y-75550038D01*
X198275485Y-75550038D02*
X198323104Y-75597657D01*
X198323104Y-75597657D02*
X198370723Y-75692895D01*
X198370723Y-75692895D02*
X198370723Y-75788133D01*
X198370723Y-75788133D02*
X198323104Y-75930990D01*
X198323104Y-75930990D02*
X197751676Y-76502419D01*
X197751676Y-76502419D02*
X198370723Y-76502419D01*
X192822533Y-70627219D02*
X192489200Y-70151028D01*
X192251105Y-70627219D02*
X192251105Y-69627219D01*
X192251105Y-69627219D02*
X192632057Y-69627219D01*
X192632057Y-69627219D02*
X192727295Y-69674838D01*
X192727295Y-69674838D02*
X192774914Y-69722457D01*
X192774914Y-69722457D02*
X192822533Y-69817695D01*
X192822533Y-69817695D02*
X192822533Y-69960552D01*
X192822533Y-69960552D02*
X192774914Y-70055790D01*
X192774914Y-70055790D02*
X192727295Y-70103409D01*
X192727295Y-70103409D02*
X192632057Y-70151028D01*
X192632057Y-70151028D02*
X192251105Y-70151028D01*
X193203486Y-69722457D02*
X193251105Y-69674838D01*
X193251105Y-69674838D02*
X193346343Y-69627219D01*
X193346343Y-69627219D02*
X193584438Y-69627219D01*
X193584438Y-69627219D02*
X193679676Y-69674838D01*
X193679676Y-69674838D02*
X193727295Y-69722457D01*
X193727295Y-69722457D02*
X193774914Y-69817695D01*
X193774914Y-69817695D02*
X193774914Y-69912933D01*
X193774914Y-69912933D02*
X193727295Y-70055790D01*
X193727295Y-70055790D02*
X193155867Y-70627219D01*
X193155867Y-70627219D02*
X193774914Y-70627219D01*
X153858933Y-75740419D02*
X153525600Y-75264228D01*
X153287505Y-75740419D02*
X153287505Y-74740419D01*
X153287505Y-74740419D02*
X153668457Y-74740419D01*
X153668457Y-74740419D02*
X153763695Y-74788038D01*
X153763695Y-74788038D02*
X153811314Y-74835657D01*
X153811314Y-74835657D02*
X153858933Y-74930895D01*
X153858933Y-74930895D02*
X153858933Y-75073752D01*
X153858933Y-75073752D02*
X153811314Y-75168990D01*
X153811314Y-75168990D02*
X153763695Y-75216609D01*
X153763695Y-75216609D02*
X153668457Y-75264228D01*
X153668457Y-75264228D02*
X153287505Y-75264228D01*
X154716076Y-75073752D02*
X154716076Y-75740419D01*
X154477981Y-74692800D02*
X154239886Y-75407085D01*
X154239886Y-75407085D02*
X154858933Y-75407085D01*
X186289961Y-78324857D02*
X186194723Y-78277238D01*
X186194723Y-78277238D02*
X186099485Y-78182000D01*
X186099485Y-78182000D02*
X185956628Y-78039142D01*
X185956628Y-78039142D02*
X185861390Y-77991523D01*
X185861390Y-77991523D02*
X185766152Y-77991523D01*
X185813771Y-78229619D02*
X185718533Y-78182000D01*
X185718533Y-78182000D02*
X185623295Y-78086761D01*
X185623295Y-78086761D02*
X185575676Y-77896285D01*
X185575676Y-77896285D02*
X185575676Y-77562952D01*
X185575676Y-77562952D02*
X185623295Y-77372476D01*
X185623295Y-77372476D02*
X185718533Y-77277238D01*
X185718533Y-77277238D02*
X185813771Y-77229619D01*
X185813771Y-77229619D02*
X186004247Y-77229619D01*
X186004247Y-77229619D02*
X186099485Y-77277238D01*
X186099485Y-77277238D02*
X186194723Y-77372476D01*
X186194723Y-77372476D02*
X186242342Y-77562952D01*
X186242342Y-77562952D02*
X186242342Y-77896285D01*
X186242342Y-77896285D02*
X186194723Y-78086761D01*
X186194723Y-78086761D02*
X186099485Y-78182000D01*
X186099485Y-78182000D02*
X186004247Y-78229619D01*
X186004247Y-78229619D02*
X185813771Y-78229619D01*
X187194723Y-78229619D02*
X186623295Y-78229619D01*
X186909009Y-78229619D02*
X186909009Y-77229619D01*
X186909009Y-77229619D02*
X186813771Y-77372476D01*
X186813771Y-77372476D02*
X186718533Y-77467714D01*
X186718533Y-77467714D02*
X186623295Y-77515333D01*
X134808933Y-71625619D02*
X134475600Y-71149428D01*
X134237505Y-71625619D02*
X134237505Y-70625619D01*
X134237505Y-70625619D02*
X134618457Y-70625619D01*
X134618457Y-70625619D02*
X134713695Y-70673238D01*
X134713695Y-70673238D02*
X134761314Y-70720857D01*
X134761314Y-70720857D02*
X134808933Y-70816095D01*
X134808933Y-70816095D02*
X134808933Y-70958952D01*
X134808933Y-70958952D02*
X134761314Y-71054190D01*
X134761314Y-71054190D02*
X134713695Y-71101809D01*
X134713695Y-71101809D02*
X134618457Y-71149428D01*
X134618457Y-71149428D02*
X134237505Y-71149428D01*
X135666076Y-70625619D02*
X135475600Y-70625619D01*
X135475600Y-70625619D02*
X135380362Y-70673238D01*
X135380362Y-70673238D02*
X135332743Y-70720857D01*
X135332743Y-70720857D02*
X135237505Y-70863714D01*
X135237505Y-70863714D02*
X135189886Y-71054190D01*
X135189886Y-71054190D02*
X135189886Y-71435142D01*
X135189886Y-71435142D02*
X135237505Y-71530380D01*
X135237505Y-71530380D02*
X135285124Y-71578000D01*
X135285124Y-71578000D02*
X135380362Y-71625619D01*
X135380362Y-71625619D02*
X135570838Y-71625619D01*
X135570838Y-71625619D02*
X135666076Y-71578000D01*
X135666076Y-71578000D02*
X135713695Y-71530380D01*
X135713695Y-71530380D02*
X135761314Y-71435142D01*
X135761314Y-71435142D02*
X135761314Y-71197047D01*
X135761314Y-71197047D02*
X135713695Y-71101809D01*
X135713695Y-71101809D02*
X135666076Y-71054190D01*
X135666076Y-71054190D02*
X135570838Y-71006571D01*
X135570838Y-71006571D02*
X135380362Y-71006571D01*
X135380362Y-71006571D02*
X135285124Y-71054190D01*
X135285124Y-71054190D02*
X135237505Y-71101809D01*
X135237505Y-71101809D02*
X135189886Y-71197047D01*
X146696133Y-78058380D02*
X146648514Y-78106000D01*
X146648514Y-78106000D02*
X146505657Y-78153619D01*
X146505657Y-78153619D02*
X146410419Y-78153619D01*
X146410419Y-78153619D02*
X146267562Y-78106000D01*
X146267562Y-78106000D02*
X146172324Y-78010761D01*
X146172324Y-78010761D02*
X146124705Y-77915523D01*
X146124705Y-77915523D02*
X146077086Y-77725047D01*
X146077086Y-77725047D02*
X146077086Y-77582190D01*
X146077086Y-77582190D02*
X146124705Y-77391714D01*
X146124705Y-77391714D02*
X146172324Y-77296476D01*
X146172324Y-77296476D02*
X146267562Y-77201238D01*
X146267562Y-77201238D02*
X146410419Y-77153619D01*
X146410419Y-77153619D02*
X146505657Y-77153619D01*
X146505657Y-77153619D02*
X146648514Y-77201238D01*
X146648514Y-77201238D02*
X146696133Y-77248857D01*
X147029467Y-77153619D02*
X147648514Y-77153619D01*
X147648514Y-77153619D02*
X147315181Y-77534571D01*
X147315181Y-77534571D02*
X147458038Y-77534571D01*
X147458038Y-77534571D02*
X147553276Y-77582190D01*
X147553276Y-77582190D02*
X147600895Y-77629809D01*
X147600895Y-77629809D02*
X147648514Y-77725047D01*
X147648514Y-77725047D02*
X147648514Y-77963142D01*
X147648514Y-77963142D02*
X147600895Y-78058380D01*
X147600895Y-78058380D02*
X147553276Y-78106000D01*
X147553276Y-78106000D02*
X147458038Y-78153619D01*
X147458038Y-78153619D02*
X147172324Y-78153619D01*
X147172324Y-78153619D02*
X147077086Y-78106000D01*
X147077086Y-78106000D02*
X147029467Y-78058380D01*
X126311066Y-93282419D02*
X126311066Y-93996704D01*
X126311066Y-93996704D02*
X126263447Y-94139561D01*
X126263447Y-94139561D02*
X126168209Y-94234800D01*
X126168209Y-94234800D02*
X126025352Y-94282419D01*
X126025352Y-94282419D02*
X125930114Y-94282419D01*
X126930114Y-93710990D02*
X126834876Y-93663371D01*
X126834876Y-93663371D02*
X126787257Y-93615752D01*
X126787257Y-93615752D02*
X126739638Y-93520514D01*
X126739638Y-93520514D02*
X126739638Y-93472895D01*
X126739638Y-93472895D02*
X126787257Y-93377657D01*
X126787257Y-93377657D02*
X126834876Y-93330038D01*
X126834876Y-93330038D02*
X126930114Y-93282419D01*
X126930114Y-93282419D02*
X127120590Y-93282419D01*
X127120590Y-93282419D02*
X127215828Y-93330038D01*
X127215828Y-93330038D02*
X127263447Y-93377657D01*
X127263447Y-93377657D02*
X127311066Y-93472895D01*
X127311066Y-93472895D02*
X127311066Y-93520514D01*
X127311066Y-93520514D02*
X127263447Y-93615752D01*
X127263447Y-93615752D02*
X127215828Y-93663371D01*
X127215828Y-93663371D02*
X127120590Y-93710990D01*
X127120590Y-93710990D02*
X126930114Y-93710990D01*
X126930114Y-93710990D02*
X126834876Y-93758609D01*
X126834876Y-93758609D02*
X126787257Y-93806228D01*
X126787257Y-93806228D02*
X126739638Y-93901466D01*
X126739638Y-93901466D02*
X126739638Y-94091942D01*
X126739638Y-94091942D02*
X126787257Y-94187180D01*
X126787257Y-94187180D02*
X126834876Y-94234800D01*
X126834876Y-94234800D02*
X126930114Y-94282419D01*
X126930114Y-94282419D02*
X127120590Y-94282419D01*
X127120590Y-94282419D02*
X127215828Y-94234800D01*
X127215828Y-94234800D02*
X127263447Y-94187180D01*
X127263447Y-94187180D02*
X127311066Y-94091942D01*
X127311066Y-94091942D02*
X127311066Y-93901466D01*
X127311066Y-93901466D02*
X127263447Y-93806228D01*
X127263447Y-93806228D02*
X127215828Y-93758609D01*
X127215828Y-93758609D02*
X127120590Y-93710990D01*
X189357333Y-90052380D02*
X189309714Y-90100000D01*
X189309714Y-90100000D02*
X189166857Y-90147619D01*
X189166857Y-90147619D02*
X189071619Y-90147619D01*
X189071619Y-90147619D02*
X188928762Y-90100000D01*
X188928762Y-90100000D02*
X188833524Y-90004761D01*
X188833524Y-90004761D02*
X188785905Y-89909523D01*
X188785905Y-89909523D02*
X188738286Y-89719047D01*
X188738286Y-89719047D02*
X188738286Y-89576190D01*
X188738286Y-89576190D02*
X188785905Y-89385714D01*
X188785905Y-89385714D02*
X188833524Y-89290476D01*
X188833524Y-89290476D02*
X188928762Y-89195238D01*
X188928762Y-89195238D02*
X189071619Y-89147619D01*
X189071619Y-89147619D02*
X189166857Y-89147619D01*
X189166857Y-89147619D02*
X189309714Y-89195238D01*
X189309714Y-89195238D02*
X189357333Y-89242857D01*
X190309714Y-90147619D02*
X189738286Y-90147619D01*
X190024000Y-90147619D02*
X190024000Y-89147619D01*
X190024000Y-89147619D02*
X189928762Y-89290476D01*
X189928762Y-89290476D02*
X189833524Y-89385714D01*
X189833524Y-89385714D02*
X189738286Y-89433333D01*
X163663333Y-70609619D02*
X163187143Y-70609619D01*
X163187143Y-70609619D02*
X163187143Y-69609619D01*
X164520476Y-70609619D02*
X163949048Y-70609619D01*
X164234762Y-70609619D02*
X164234762Y-69609619D01*
X164234762Y-69609619D02*
X164139524Y-69752476D01*
X164139524Y-69752476D02*
X164044286Y-69847714D01*
X164044286Y-69847714D02*
X163949048Y-69895333D01*
X148563105Y-90085219D02*
X148563105Y-89085219D01*
X148563105Y-89085219D02*
X148801200Y-89085219D01*
X148801200Y-89085219D02*
X148944057Y-89132838D01*
X148944057Y-89132838D02*
X149039295Y-89228076D01*
X149039295Y-89228076D02*
X149086914Y-89323314D01*
X149086914Y-89323314D02*
X149134533Y-89513790D01*
X149134533Y-89513790D02*
X149134533Y-89656647D01*
X149134533Y-89656647D02*
X149086914Y-89847123D01*
X149086914Y-89847123D02*
X149039295Y-89942361D01*
X149039295Y-89942361D02*
X148944057Y-90037600D01*
X148944057Y-90037600D02*
X148801200Y-90085219D01*
X148801200Y-90085219D02*
X148563105Y-90085219D01*
X150086914Y-90085219D02*
X149515486Y-90085219D01*
X149801200Y-90085219D02*
X149801200Y-89085219D01*
X149801200Y-89085219D02*
X149705962Y-89228076D01*
X149705962Y-89228076D02*
X149610724Y-89323314D01*
X149610724Y-89323314D02*
X149515486Y-89370933D01*
X143959295Y-90455219D02*
X143959295Y-89455219D01*
X144530723Y-90455219D02*
X144102152Y-89883790D01*
X144530723Y-89455219D02*
X143959295Y-90026647D01*
D11*
%TO.C,J7*%
X208345200Y-98497600D02*
X208345200Y-94197600D01*
X208345200Y-98497600D02*
X210145200Y-98497600D01*
X210145200Y-94197600D02*
X208345200Y-94197600D01*
X210145200Y-94197600D02*
X210145200Y-98497600D01*
%TO.C,J1*%
X188874400Y-97942400D02*
X188874400Y-105562400D01*
X188874400Y-105562400D02*
X199034400Y-105562400D01*
X199034400Y-97942400D02*
X188874400Y-97942400D01*
X199034400Y-104292400D02*
X188874400Y-104292400D01*
X199034400Y-105562400D02*
X199034400Y-97942400D01*
%TO.C,J6*%
X129844800Y-104000000D02*
G75*
G02*
X125272800Y-104000000I-2286000J0D01*
G01*
X125272800Y-104000000D02*
G75*
G02*
X129844800Y-104000000I2286000J0D01*
G01*
%TO.C,R1*%
X196162800Y-92098800D02*
X196932800Y-92098800D01*
X196932800Y-90728800D02*
X196932800Y-93468800D01*
X196932800Y-93468800D02*
X203472800Y-93468800D01*
X203472800Y-90728800D02*
X196932800Y-90728800D01*
X203472800Y-93468800D02*
X203472800Y-90728800D01*
X204242800Y-92098800D02*
X203472800Y-92098800D01*
%TO.C,C4*%
X162567600Y-102036800D02*
X158773600Y-102036800D01*
X162567600Y-102077800D02*
X158778600Y-102077800D01*
X162567600Y-102117800D02*
X158784600Y-102117800D01*
X162567600Y-102157800D02*
X158790600Y-102157800D01*
X162567600Y-102197800D02*
X158797600Y-102197800D01*
X162567600Y-102237800D02*
X158804600Y-102237800D01*
X162567600Y-102277800D02*
X158811600Y-102277800D01*
X162567600Y-102317800D02*
X158818600Y-102317800D01*
X162567600Y-102357800D02*
X158826600Y-102357800D01*
X162567600Y-102397800D02*
X158834600Y-102397800D01*
X162567600Y-102437800D02*
X158843600Y-102437800D01*
X162567600Y-102477800D02*
X158852600Y-102477800D01*
X162567600Y-102517800D02*
X158861600Y-102517800D01*
X162567600Y-102557800D02*
X158870600Y-102557800D01*
X162567600Y-102597800D02*
X158880600Y-102597800D01*
X162567600Y-102637800D02*
X158890600Y-102637800D01*
X162567600Y-102677800D02*
X158901600Y-102677800D01*
X162567600Y-102717800D02*
X158911600Y-102717800D01*
X162567600Y-102757800D02*
X158923600Y-102757800D01*
X162567600Y-102797800D02*
X158934600Y-102797800D01*
X162567600Y-102837800D02*
X158946600Y-102837800D01*
X162567600Y-102877800D02*
X158958600Y-102877800D01*
X162567600Y-102917800D02*
X158971600Y-102917800D01*
X162567600Y-102957800D02*
X158984600Y-102957800D01*
X162567600Y-102997800D02*
X158997600Y-102997800D01*
X162567600Y-103037800D02*
X159011600Y-103037800D01*
X162567600Y-103077800D02*
X159025600Y-103077800D01*
X162567600Y-103117800D02*
X159040600Y-103117800D01*
X162567600Y-103157800D02*
X159054600Y-103157800D01*
X162567600Y-103197800D02*
X159070600Y-103197800D01*
X162567600Y-103237800D02*
X159085600Y-103237800D01*
X162567600Y-103277800D02*
X159101600Y-103277800D01*
X162567600Y-103317800D02*
X159118600Y-103317800D01*
X162567600Y-103357800D02*
X159134600Y-103357800D01*
X162567600Y-103397800D02*
X159151600Y-103397800D01*
X162567600Y-103437800D02*
X159169600Y-103437800D01*
X162567600Y-103477800D02*
X159187600Y-103477800D01*
X162567600Y-103517800D02*
X159205600Y-103517800D01*
X162567600Y-103557800D02*
X159224600Y-103557800D01*
X162567600Y-103597800D02*
X159244600Y-103597800D01*
X162567600Y-103637800D02*
X159263600Y-103637800D01*
X162567600Y-103677800D02*
X159283600Y-103677800D01*
X162567600Y-103717800D02*
X159304600Y-103717800D01*
X162567600Y-103757800D02*
X159325600Y-103757800D01*
X162567600Y-103797800D02*
X159346600Y-103797800D01*
X162567600Y-103837800D02*
X159368600Y-103837800D01*
X162567600Y-103877800D02*
X159391600Y-103877800D01*
X162567600Y-103917800D02*
X159413600Y-103917800D01*
X162567600Y-103957800D02*
X159437600Y-103957800D01*
X162567600Y-103997800D02*
X159461600Y-103997800D01*
X162567600Y-104037800D02*
X159485600Y-104037800D01*
X162567600Y-104077800D02*
X159510600Y-104077800D01*
X162567600Y-104117800D02*
X159535600Y-104117800D01*
X162567600Y-104157800D02*
X159561600Y-104157800D01*
X162567600Y-104197800D02*
X159587600Y-104197800D01*
X162567600Y-104237800D02*
X159614600Y-104237800D01*
X162567600Y-104277800D02*
X159642600Y-104277800D01*
X162567600Y-104317800D02*
X159670600Y-104317800D01*
X162567600Y-104357800D02*
X159698600Y-104357800D01*
X162567600Y-104397800D02*
X159728600Y-104397800D01*
X162567600Y-104437800D02*
X159758600Y-104437800D01*
X162567600Y-104477800D02*
X159788600Y-104477800D01*
X164407600Y-106437800D02*
X163209600Y-106437800D01*
X164670600Y-106397800D02*
X162946600Y-106397800D01*
X164870600Y-106357800D02*
X162746600Y-106357800D01*
X165038600Y-106317800D02*
X162578600Y-106317800D01*
X165186600Y-106277800D02*
X162430600Y-106277800D01*
X165318600Y-106237800D02*
X162298600Y-106237800D01*
X165438600Y-106197800D02*
X162178600Y-106197800D01*
X165550600Y-106157800D02*
X162066600Y-106157800D01*
X165654600Y-106117800D02*
X161962600Y-106117800D01*
X165752600Y-106077800D02*
X161864600Y-106077800D01*
X165845600Y-106037800D02*
X161771600Y-106037800D01*
X165933600Y-105997800D02*
X161683600Y-105997800D01*
X166017600Y-105957800D02*
X161599600Y-105957800D01*
X166097600Y-105917800D02*
X161519600Y-105917800D01*
X166173600Y-105877800D02*
X161443600Y-105877800D01*
X166247600Y-105837800D02*
X161369600Y-105837800D01*
X166318600Y-105797800D02*
X161298600Y-105797800D01*
X166387600Y-105757800D02*
X161229600Y-105757800D01*
X166453600Y-105717800D02*
X161163600Y-105717800D01*
X166517600Y-105677800D02*
X161099600Y-105677800D01*
X166578600Y-105637800D02*
X161038600Y-105637800D01*
X166638600Y-105597800D02*
X160978600Y-105597800D01*
X166683600Y-95877154D02*
X166683600Y-96877154D01*
X166697600Y-105557800D02*
X160919600Y-105557800D01*
X166753600Y-105517800D02*
X160863600Y-105517800D01*
X166808600Y-105477800D02*
X160808600Y-105477800D01*
X166862600Y-105437800D02*
X160754600Y-105437800D01*
X166914600Y-105397800D02*
X160702600Y-105397800D01*
X166964600Y-105357800D02*
X160652600Y-105357800D01*
X167014600Y-105317800D02*
X160602600Y-105317800D01*
X167062600Y-105277800D02*
X160554600Y-105277800D01*
X167109600Y-105237800D02*
X160507600Y-105237800D01*
X167155600Y-105197800D02*
X160461600Y-105197800D01*
X167183600Y-96377154D02*
X166183600Y-96377154D01*
X167200600Y-105157800D02*
X160416600Y-105157800D01*
X167244600Y-105117800D02*
X160372600Y-105117800D01*
X167286600Y-105077800D02*
X160330600Y-105077800D01*
X167328600Y-105037800D02*
X160288600Y-105037800D01*
X167369600Y-104997800D02*
X160247600Y-104997800D01*
X167409600Y-104957800D02*
X160207600Y-104957800D01*
X167448600Y-104917800D02*
X160168600Y-104917800D01*
X167487600Y-104877800D02*
X160129600Y-104877800D01*
X167524600Y-104837800D02*
X160092600Y-104837800D01*
X167561600Y-104797800D02*
X160055600Y-104797800D01*
X167597600Y-104757800D02*
X160019600Y-104757800D01*
X167632600Y-104717800D02*
X159984600Y-104717800D01*
X167666600Y-104677800D02*
X159950600Y-104677800D01*
X167700600Y-104637800D02*
X159916600Y-104637800D01*
X167733600Y-104597800D02*
X159883600Y-104597800D01*
X167765600Y-104557800D02*
X159851600Y-104557800D01*
X167797600Y-104517800D02*
X159819600Y-104517800D01*
X167828600Y-104477800D02*
X165049600Y-104477800D01*
X167858600Y-104437800D02*
X165049600Y-104437800D01*
X167888600Y-104397800D02*
X165049600Y-104397800D01*
X167918600Y-104357800D02*
X165049600Y-104357800D01*
X167946600Y-104317800D02*
X165049600Y-104317800D01*
X167974600Y-104277800D02*
X165049600Y-104277800D01*
X168002600Y-104237800D02*
X165049600Y-104237800D01*
X168029600Y-104197800D02*
X165049600Y-104197800D01*
X168055600Y-104157800D02*
X165049600Y-104157800D01*
X168081600Y-104117800D02*
X165049600Y-104117800D01*
X168106600Y-104077800D02*
X165049600Y-104077800D01*
X168131600Y-104037800D02*
X165049600Y-104037800D01*
X168155600Y-103997800D02*
X165049600Y-103997800D01*
X168179600Y-103957800D02*
X165049600Y-103957800D01*
X168203600Y-103917800D02*
X165049600Y-103917800D01*
X168225600Y-103877800D02*
X165049600Y-103877800D01*
X168248600Y-103837800D02*
X165049600Y-103837800D01*
X168270600Y-103797800D02*
X165049600Y-103797800D01*
X168291600Y-103757800D02*
X165049600Y-103757800D01*
X168312600Y-103717800D02*
X165049600Y-103717800D01*
X168333600Y-103677800D02*
X165049600Y-103677800D01*
X168353600Y-103637800D02*
X165049600Y-103637800D01*
X168372600Y-103597800D02*
X165049600Y-103597800D01*
X168392600Y-103557800D02*
X165049600Y-103557800D01*
X168411600Y-103517800D02*
X165049600Y-103517800D01*
X168429600Y-103477800D02*
X165049600Y-103477800D01*
X168447600Y-103437800D02*
X165049600Y-103437800D01*
X168465600Y-103397800D02*
X165049600Y-103397800D01*
X168482600Y-103357800D02*
X165049600Y-103357800D01*
X168498600Y-103317800D02*
X165049600Y-103317800D01*
X168515600Y-103277800D02*
X165049600Y-103277800D01*
X168531600Y-103237800D02*
X165049600Y-103237800D01*
X168546600Y-103197800D02*
X165049600Y-103197800D01*
X168562600Y-103157800D02*
X165049600Y-103157800D01*
X168576600Y-103117800D02*
X165049600Y-103117800D01*
X168591600Y-103077800D02*
X165049600Y-103077800D01*
X168605600Y-103037800D02*
X165049600Y-103037800D01*
X168619600Y-102997800D02*
X165049600Y-102997800D01*
X168632600Y-102957800D02*
X165049600Y-102957800D01*
X168645600Y-102917800D02*
X165049600Y-102917800D01*
X168658600Y-102877800D02*
X165049600Y-102877800D01*
X168670600Y-102837800D02*
X165049600Y-102837800D01*
X168682600Y-102797800D02*
X165049600Y-102797800D01*
X168693600Y-102757800D02*
X165049600Y-102757800D01*
X168705600Y-102717800D02*
X165049600Y-102717800D01*
X168715600Y-102677800D02*
X165049600Y-102677800D01*
X168726600Y-102637800D02*
X165049600Y-102637800D01*
X168736600Y-102597800D02*
X165049600Y-102597800D01*
X168746600Y-102557800D02*
X165049600Y-102557800D01*
X168755600Y-102517800D02*
X165049600Y-102517800D01*
X168764600Y-102477800D02*
X165049600Y-102477800D01*
X168773600Y-102437800D02*
X165049600Y-102437800D01*
X168782600Y-102397800D02*
X165049600Y-102397800D01*
X168790600Y-102357800D02*
X165049600Y-102357800D01*
X168798600Y-102317800D02*
X165049600Y-102317800D01*
X168805600Y-102277800D02*
X165049600Y-102277800D01*
X168812600Y-102237800D02*
X165049600Y-102237800D01*
X168819600Y-102197800D02*
X165049600Y-102197800D01*
X168826600Y-102157800D02*
X165049600Y-102157800D01*
X168832600Y-102117800D02*
X165049600Y-102117800D01*
X168838600Y-102077800D02*
X165049600Y-102077800D01*
X168843600Y-102036800D02*
X165049600Y-102036800D01*
X168848600Y-101996800D02*
X158768600Y-101996800D01*
X168853600Y-101956800D02*
X158763600Y-101956800D01*
X168858600Y-101916800D02*
X158758600Y-101916800D01*
X168862600Y-101876800D02*
X158754600Y-101876800D01*
X168866600Y-101836800D02*
X158750600Y-101836800D01*
X168870600Y-101796800D02*
X158746600Y-101796800D01*
X168873600Y-101756800D02*
X158743600Y-101756800D01*
X168876600Y-101716800D02*
X158740600Y-101716800D01*
X168878600Y-101676800D02*
X158738600Y-101676800D01*
X168881600Y-101636800D02*
X158735600Y-101636800D01*
X168883600Y-101596800D02*
X158733600Y-101596800D01*
X168885600Y-101556800D02*
X158731600Y-101556800D01*
X168886600Y-101516800D02*
X158730600Y-101516800D01*
X168887600Y-101476800D02*
X158729600Y-101476800D01*
X168888600Y-101356800D02*
X158728600Y-101356800D01*
X168888600Y-101396800D02*
X158728600Y-101396800D01*
X168888600Y-101436800D02*
X158728600Y-101436800D01*
X168928600Y-101356800D02*
G75*
G02*
X158688600Y-101356800I-5120000J0D01*
G01*
X158688600Y-101356800D02*
G75*
G02*
X168928600Y-101356800I5120000J0D01*
G01*
%TO.C,R3*%
X173912400Y-72593200D02*
X174682400Y-72593200D01*
X174682400Y-71223200D02*
X174682400Y-73963200D01*
X174682400Y-73963200D02*
X181222400Y-73963200D01*
X181222400Y-71223200D02*
X174682400Y-71223200D01*
X181222400Y-73963200D02*
X181222400Y-71223200D01*
X181992400Y-72593200D02*
X181222400Y-72593200D01*
%TO.C,C5*%
X176660600Y-102637800D02*
X172983600Y-102637800D01*
X176660600Y-102677800D02*
X172994600Y-102677800D01*
X176660600Y-102717800D02*
X173004600Y-102717800D01*
X176660600Y-102757800D02*
X173016600Y-102757800D01*
X176660600Y-102797800D02*
X173027600Y-102797800D01*
X176660600Y-102837800D02*
X173039600Y-102837800D01*
X176660600Y-102877800D02*
X173051600Y-102877800D01*
X176660600Y-102917800D02*
X173064600Y-102917800D01*
X176660600Y-102957800D02*
X173077600Y-102957800D01*
X176660600Y-102997800D02*
X173090600Y-102997800D01*
X176660600Y-103037800D02*
X173104600Y-103037800D01*
X176660600Y-103077800D02*
X173118600Y-103077800D01*
X176660600Y-103117800D02*
X173133600Y-103117800D01*
X176660600Y-103157800D02*
X173147600Y-103157800D01*
X176660600Y-103197800D02*
X173163600Y-103197800D01*
X176660600Y-103237800D02*
X173178600Y-103237800D01*
X176660600Y-103277800D02*
X173194600Y-103277800D01*
X176660600Y-103317800D02*
X173211600Y-103317800D01*
X176660600Y-103357800D02*
X173227600Y-103357800D01*
X176660600Y-103397800D02*
X173244600Y-103397800D01*
X176660600Y-103437800D02*
X173262600Y-103437800D01*
X176660600Y-103477800D02*
X173280600Y-103477800D01*
X176660600Y-103517800D02*
X173298600Y-103517800D01*
X176660600Y-103557800D02*
X173317600Y-103557800D01*
X176660600Y-103597800D02*
X173337600Y-103597800D01*
X176660600Y-103637800D02*
X173356600Y-103637800D01*
X176660600Y-103677800D02*
X173376600Y-103677800D01*
X176660600Y-103717800D02*
X173397600Y-103717800D01*
X176660600Y-103757800D02*
X173418600Y-103757800D01*
X176660600Y-103797800D02*
X173439600Y-103797800D01*
X176660600Y-103837800D02*
X173461600Y-103837800D01*
X176660600Y-103877800D02*
X173484600Y-103877800D01*
X176660600Y-103917800D02*
X173506600Y-103917800D01*
X176660600Y-103957800D02*
X173530600Y-103957800D01*
X176660600Y-103997800D02*
X173554600Y-103997800D01*
X176660600Y-104037800D02*
X173578600Y-104037800D01*
X176660600Y-104077800D02*
X173603600Y-104077800D01*
X176660600Y-104117800D02*
X173628600Y-104117800D01*
X176660600Y-104157800D02*
X173654600Y-104157800D01*
X176660600Y-104197800D02*
X173680600Y-104197800D01*
X176660600Y-104237800D02*
X173707600Y-104237800D01*
X176660600Y-104277800D02*
X173735600Y-104277800D01*
X176660600Y-104317800D02*
X173763600Y-104317800D01*
X176660600Y-104357800D02*
X173791600Y-104357800D01*
X176660600Y-104397800D02*
X173821600Y-104397800D01*
X176660600Y-104437800D02*
X173851600Y-104437800D01*
X176660600Y-104477800D02*
X173881600Y-104477800D01*
X176660600Y-104517800D02*
X173912600Y-104517800D01*
X176660600Y-104557800D02*
X173944600Y-104557800D01*
X176660600Y-104597800D02*
X173976600Y-104597800D01*
X176660600Y-104637800D02*
X174009600Y-104637800D01*
X176660600Y-104677800D02*
X174043600Y-104677800D01*
X176660600Y-104717800D02*
X174077600Y-104717800D01*
X176660600Y-104757800D02*
X174112600Y-104757800D01*
X176660600Y-104797800D02*
X174148600Y-104797800D01*
X176660600Y-104837800D02*
X174185600Y-104837800D01*
X176660600Y-104877800D02*
X174222600Y-104877800D01*
X176660600Y-104917800D02*
X174261600Y-104917800D01*
X176660600Y-104957800D02*
X174300600Y-104957800D01*
X176660600Y-104997800D02*
X174340600Y-104997800D01*
X176660600Y-105037800D02*
X174381600Y-105037800D01*
X176660600Y-105077800D02*
X174423600Y-105077800D01*
X178500600Y-106437800D02*
X177302600Y-106437800D01*
X178763600Y-106397800D02*
X177039600Y-106397800D01*
X178963600Y-106357800D02*
X176839600Y-106357800D01*
X179131600Y-106317800D02*
X176671600Y-106317800D01*
X179279600Y-106277800D02*
X176523600Y-106277800D01*
X179411600Y-106237800D02*
X176391600Y-106237800D01*
X179531600Y-106197800D02*
X176271600Y-106197800D01*
X179643600Y-106157800D02*
X176159600Y-106157800D01*
X179747600Y-106117800D02*
X176055600Y-106117800D01*
X179845600Y-106077800D02*
X175957600Y-106077800D01*
X179938600Y-106037800D02*
X175864600Y-106037800D01*
X180026600Y-105997800D02*
X175776600Y-105997800D01*
X180110600Y-105957800D02*
X175692600Y-105957800D01*
X180190600Y-105917800D02*
X175612600Y-105917800D01*
X180266600Y-105877800D02*
X175536600Y-105877800D01*
X180340600Y-105837800D02*
X175462600Y-105837800D01*
X180411600Y-105797800D02*
X175391600Y-105797800D01*
X180480600Y-105757800D02*
X175322600Y-105757800D01*
X180546600Y-105717800D02*
X175256600Y-105717800D01*
X180610600Y-105677800D02*
X175192600Y-105677800D01*
X180671600Y-105637800D02*
X175131600Y-105637800D01*
X180731600Y-105597800D02*
X175071600Y-105597800D01*
X180776600Y-95877154D02*
X180776600Y-96877154D01*
X180790600Y-105557800D02*
X175012600Y-105557800D01*
X180846600Y-105517800D02*
X174956600Y-105517800D01*
X180901600Y-105477800D02*
X174901600Y-105477800D01*
X180955600Y-105437800D02*
X174847600Y-105437800D01*
X181007600Y-105397800D02*
X174795600Y-105397800D01*
X181057600Y-105357800D02*
X174745600Y-105357800D01*
X181107600Y-105317800D02*
X174695600Y-105317800D01*
X181155600Y-105277800D02*
X174647600Y-105277800D01*
X181202600Y-105237800D02*
X174600600Y-105237800D01*
X181248600Y-105197800D02*
X174554600Y-105197800D01*
X181276600Y-96377154D02*
X180276600Y-96377154D01*
X181293600Y-105157800D02*
X174509600Y-105157800D01*
X181337600Y-105117800D02*
X174465600Y-105117800D01*
X181379600Y-105077800D02*
X179142600Y-105077800D01*
X181421600Y-105037800D02*
X179142600Y-105037800D01*
X181462600Y-104997800D02*
X179142600Y-104997800D01*
X181502600Y-104957800D02*
X179142600Y-104957800D01*
X181541600Y-104917800D02*
X179142600Y-104917800D01*
X181580600Y-104877800D02*
X179142600Y-104877800D01*
X181617600Y-104837800D02*
X179142600Y-104837800D01*
X181654600Y-104797800D02*
X179142600Y-104797800D01*
X181690600Y-104757800D02*
X179142600Y-104757800D01*
X181725600Y-104717800D02*
X179142600Y-104717800D01*
X181759600Y-104677800D02*
X179142600Y-104677800D01*
X181793600Y-104637800D02*
X179142600Y-104637800D01*
X181826600Y-104597800D02*
X179142600Y-104597800D01*
X181858600Y-104557800D02*
X179142600Y-104557800D01*
X181890600Y-104517800D02*
X179142600Y-104517800D01*
X181921600Y-104477800D02*
X179142600Y-104477800D01*
X181951600Y-104437800D02*
X179142600Y-104437800D01*
X181981600Y-104397800D02*
X179142600Y-104397800D01*
X182011600Y-104357800D02*
X179142600Y-104357800D01*
X182039600Y-104317800D02*
X179142600Y-104317800D01*
X182067600Y-104277800D02*
X179142600Y-104277800D01*
X182095600Y-104237800D02*
X179142600Y-104237800D01*
X182122600Y-104197800D02*
X179142600Y-104197800D01*
X182148600Y-104157800D02*
X179142600Y-104157800D01*
X182174600Y-104117800D02*
X179142600Y-104117800D01*
X182199600Y-104077800D02*
X179142600Y-104077800D01*
X182224600Y-104037800D02*
X179142600Y-104037800D01*
X182248600Y-103997800D02*
X179142600Y-103997800D01*
X182272600Y-103957800D02*
X179142600Y-103957800D01*
X182296600Y-103917800D02*
X179142600Y-103917800D01*
X182318600Y-103877800D02*
X179142600Y-103877800D01*
X182341600Y-103837800D02*
X179142600Y-103837800D01*
X182363600Y-103797800D02*
X179142600Y-103797800D01*
X182384600Y-103757800D02*
X179142600Y-103757800D01*
X182405600Y-103717800D02*
X179142600Y-103717800D01*
X182426600Y-103677800D02*
X179142600Y-103677800D01*
X182446600Y-103637800D02*
X179142600Y-103637800D01*
X182465600Y-103597800D02*
X179142600Y-103597800D01*
X182485600Y-103557800D02*
X179142600Y-103557800D01*
X182504600Y-103517800D02*
X179142600Y-103517800D01*
X182522600Y-103477800D02*
X179142600Y-103477800D01*
X182540600Y-103437800D02*
X179142600Y-103437800D01*
X182558600Y-103397800D02*
X179142600Y-103397800D01*
X182575600Y-103357800D02*
X179142600Y-103357800D01*
X182591600Y-103317800D02*
X179142600Y-103317800D01*
X182608600Y-103277800D02*
X179142600Y-103277800D01*
X182624600Y-103237800D02*
X179142600Y-103237800D01*
X182639600Y-103197800D02*
X179142600Y-103197800D01*
X182655600Y-103157800D02*
X179142600Y-103157800D01*
X182669600Y-103117800D02*
X179142600Y-103117800D01*
X182684600Y-103077800D02*
X179142600Y-103077800D01*
X182698600Y-103037800D02*
X179142600Y-103037800D01*
X182712600Y-102997800D02*
X179142600Y-102997800D01*
X182725600Y-102957800D02*
X179142600Y-102957800D01*
X182738600Y-102917800D02*
X179142600Y-102917800D01*
X182751600Y-102877800D02*
X179142600Y-102877800D01*
X182763600Y-102837800D02*
X179142600Y-102837800D01*
X182775600Y-102797800D02*
X179142600Y-102797800D01*
X182786600Y-102757800D02*
X179142600Y-102757800D01*
X182798600Y-102717800D02*
X179142600Y-102717800D01*
X182808600Y-102677800D02*
X179142600Y-102677800D01*
X182819600Y-102637800D02*
X179142600Y-102637800D01*
X182829600Y-102597800D02*
X172973600Y-102597800D01*
X182839600Y-102557800D02*
X172963600Y-102557800D01*
X182848600Y-102517800D02*
X172954600Y-102517800D01*
X182857600Y-102477800D02*
X172945600Y-102477800D01*
X182866600Y-102437800D02*
X172936600Y-102437800D01*
X182875600Y-102397800D02*
X172927600Y-102397800D01*
X182883600Y-102357800D02*
X172919600Y-102357800D01*
X182891600Y-102317800D02*
X172911600Y-102317800D01*
X182898600Y-102277800D02*
X172904600Y-102277800D01*
X182905600Y-102237800D02*
X172897600Y-102237800D01*
X182912600Y-102197800D02*
X172890600Y-102197800D01*
X182919600Y-102157800D02*
X172883600Y-102157800D01*
X182925600Y-102117800D02*
X172877600Y-102117800D01*
X182931600Y-102077800D02*
X172871600Y-102077800D01*
X182936600Y-102036800D02*
X172866600Y-102036800D01*
X182941600Y-101996800D02*
X172861600Y-101996800D01*
X182946600Y-101956800D02*
X172856600Y-101956800D01*
X182951600Y-101916800D02*
X172851600Y-101916800D01*
X182955600Y-101876800D02*
X172847600Y-101876800D01*
X182959600Y-101836800D02*
X172843600Y-101836800D01*
X182963600Y-101796800D02*
X172839600Y-101796800D01*
X182966600Y-101756800D02*
X172836600Y-101756800D01*
X182969600Y-101716800D02*
X172833600Y-101716800D01*
X182971600Y-101676800D02*
X172831600Y-101676800D01*
X182974600Y-101636800D02*
X172828600Y-101636800D01*
X182976600Y-101596800D02*
X172826600Y-101596800D01*
X182978600Y-101556800D02*
X172824600Y-101556800D01*
X182979600Y-101516800D02*
X172823600Y-101516800D01*
X182980600Y-101476800D02*
X172822600Y-101476800D01*
X182981600Y-101356800D02*
X172821600Y-101356800D01*
X182981600Y-101396800D02*
X172821600Y-101396800D01*
X182981600Y-101436800D02*
X172821600Y-101436800D01*
X183021600Y-101356800D02*
G75*
G02*
X172781600Y-101356800I-5120000J0D01*
G01*
X172781600Y-101356800D02*
G75*
G02*
X183021600Y-101356800I5120000J0D01*
G01*
%TO.C,J2*%
X144373600Y-98044000D02*
X144373600Y-105664000D01*
X144373600Y-105664000D02*
X154533600Y-105664000D01*
X154533600Y-98044000D02*
X144373600Y-98044000D01*
X154533600Y-104394000D02*
X144373600Y-104394000D01*
X154533600Y-105664000D02*
X154533600Y-98044000D01*
%TO.C,C2*%
X191365200Y-79826800D02*
X191365200Y-84766800D01*
X191680200Y-79826800D02*
X191365200Y-79826800D01*
X191680200Y-84766800D02*
X191365200Y-84766800D01*
X194105200Y-79826800D02*
X193790200Y-79826800D01*
X194105200Y-79826800D02*
X194105200Y-84766800D01*
X194105200Y-84766800D02*
X193790200Y-84766800D01*
%TO.C,RV1*%
X174693200Y-84016800D02*
X174693200Y-80036800D01*
X174693200Y-85746800D02*
X174693200Y-85056800D01*
X174793200Y-85746800D02*
X174693200Y-85746800D01*
X174793200Y-85946800D02*
X174793200Y-85746800D01*
X176003200Y-78726800D02*
X177493200Y-78726800D01*
X176213200Y-85746800D02*
X176213200Y-85946800D01*
X176213200Y-85946800D02*
X174793200Y-85946800D01*
X178513200Y-78726800D02*
X180003200Y-78726800D01*
X179793200Y-85746800D02*
X176213200Y-85746800D01*
X179793200Y-85746800D02*
X179793200Y-85946800D01*
X181213200Y-85746800D02*
X181313200Y-85746800D01*
X181213200Y-85946800D02*
X179793200Y-85946800D01*
X181213200Y-85946800D02*
X181213200Y-85746800D01*
X181313200Y-80036800D02*
X181313200Y-83576800D01*
X181313200Y-85746800D02*
X181313200Y-85496800D01*
X174693200Y-80036800D02*
G75*
G02*
X176003200Y-78726800I1310000J0D01*
G01*
X180003200Y-78726800D02*
G75*
G02*
X181313200Y-80036800I0J-1310000D01*
G01*
%TO.C,R5*%
X173963200Y-92098800D02*
X174733200Y-92098800D01*
X174733200Y-90728800D02*
X174733200Y-93468800D01*
X174733200Y-93468800D02*
X181273200Y-93468800D01*
X181273200Y-90728800D02*
X174733200Y-90728800D01*
X181273200Y-93468800D02*
X181273200Y-90728800D01*
X182043200Y-92098800D02*
X181273200Y-92098800D01*
%TO.C,Q2*%
X144282800Y-69580600D02*
X144282800Y-74221600D01*
X144282800Y-69580600D02*
X154522800Y-69580600D01*
X144282800Y-71090600D02*
X154522800Y-71090600D01*
X144282800Y-74221600D02*
X154522800Y-74221600D01*
X147552800Y-69580600D02*
X147552800Y-71090600D01*
X151253800Y-69580600D02*
X151253800Y-71090600D01*
X154522800Y-69580600D02*
X154522800Y-74221600D01*
%TO.C,U2*%
X198863600Y-77146800D02*
X198863600Y-87426800D01*
X198863600Y-87426800D02*
X200513600Y-87426800D01*
X202513600Y-87426800D02*
X204163600Y-87426800D01*
X204163600Y-77146800D02*
X198863600Y-77146800D01*
X204163600Y-87426800D02*
X204163600Y-77146800D01*
X200513600Y-87426800D02*
G75*
G02*
X202513600Y-87426800I1000000J0D01*
G01*
%TO.C,R2*%
X188949200Y-72542400D02*
X189719200Y-72542400D01*
X189719200Y-71172400D02*
X189719200Y-73912400D01*
X189719200Y-73912400D02*
X196259200Y-73912400D01*
X196259200Y-71172400D02*
X189719200Y-71172400D01*
X196259200Y-73912400D02*
X196259200Y-71172400D01*
X197029200Y-72542400D02*
X196259200Y-72542400D01*
%TO.C,J4*%
X209286000Y-104000000D02*
G75*
G02*
X204714000Y-104000000I-2286000J0D01*
G01*
X204714000Y-104000000D02*
G75*
G02*
X209286000Y-104000000I2286000J0D01*
G01*
%TO.C,R4*%
X152554000Y-79229200D02*
X152554000Y-85769200D01*
X152554000Y-85769200D02*
X155294000Y-85769200D01*
X153924000Y-78459200D02*
X153924000Y-79229200D01*
X153924000Y-86539200D02*
X153924000Y-85769200D01*
X155294000Y-79229200D02*
X152554000Y-79229200D01*
X155294000Y-85769200D02*
X155294000Y-79229200D01*
%TO.C,J5*%
X129844800Y-71950000D02*
G75*
G02*
X125272800Y-71950000I-2286000J0D01*
G01*
X125272800Y-71950000D02*
G75*
G02*
X129844800Y-71950000I2286000J0D01*
G01*
%TO.C,Q1*%
X184175200Y-80496800D02*
X184175200Y-84096800D01*
X184175200Y-80496800D02*
G75*
G02*
X184902405Y-79972616I1850000J-1800000D01*
G01*
X184902405Y-84620984D02*
G75*
G02*
X184175200Y-84096800I1122795J2324184D01*
G01*
X187124007Y-79940400D02*
G75*
G02*
X188625200Y-82296800I-1098807J-2356400D01*
G01*
X188625200Y-82296800D02*
G75*
G02*
X187124007Y-84653200I-2600000J0D01*
G01*
%TO.C,R6*%
X130254000Y-75213200D02*
X130254000Y-100453200D01*
X130254000Y-100453200D02*
X133434000Y-100453200D01*
X133434000Y-75213200D02*
X130254000Y-75213200D01*
X136314000Y-75213200D02*
X139494000Y-75213200D01*
X139494000Y-75213200D02*
X139494000Y-100453200D01*
X139494000Y-100453200D02*
X136314000Y-100453200D01*
%TO.C,C3*%
X144192000Y-78665600D02*
X144192000Y-86405600D01*
X149432000Y-78665600D02*
X144192000Y-78665600D01*
X149432000Y-78665600D02*
X149432000Y-86405600D01*
X149432000Y-86405600D02*
X144192000Y-86405600D01*
%TO.C,J8*%
X124390000Y-81824400D02*
X124390000Y-84324400D01*
X124690000Y-82124400D02*
X124690000Y-92344400D01*
X124690000Y-92344400D02*
X128710000Y-92344400D01*
X126190000Y-82124400D02*
X126190000Y-83124400D01*
X126190000Y-83124400D02*
X124690000Y-83124400D01*
X126190000Y-91344400D02*
X124690000Y-91344400D01*
X126190000Y-92344400D02*
X126190000Y-91344400D01*
X126890000Y-81824400D02*
X124390000Y-81824400D01*
X127000000Y-82124400D02*
X127000000Y-82624400D01*
X127000000Y-82624400D02*
X128210000Y-82624400D01*
X127000000Y-91844400D02*
X127000000Y-92344400D01*
X128210000Y-82624400D02*
X128210000Y-91844400D01*
X128210000Y-91844400D02*
X127000000Y-91844400D01*
X128710000Y-82124400D02*
X124690000Y-82124400D01*
X128710000Y-92344400D02*
X128710000Y-82124400D01*
%TO.C,C1*%
X185519200Y-90728800D02*
X185519200Y-93468800D01*
X185519200Y-90728800D02*
X192759200Y-90728800D01*
X185519200Y-93468800D02*
X192759200Y-93468800D01*
X192759200Y-90728800D02*
X192759200Y-93468800D01*
%TO.C,L1*%
X159544400Y-71228200D02*
X168164400Y-71228200D01*
X159544400Y-80388200D02*
X159544400Y-71228200D01*
X159544400Y-93058200D02*
X159544400Y-83898200D01*
X159544400Y-93058200D02*
X168164400Y-93058200D01*
X168164400Y-80388200D02*
X168164400Y-71228200D01*
X168164400Y-93058200D02*
X168164400Y-83898200D01*
%TO.C,D1*%
X145561200Y-92100400D02*
X146581200Y-92100400D01*
X146581200Y-90630400D02*
X146581200Y-93570400D01*
X146581200Y-93570400D02*
X152021200Y-93570400D01*
X147361200Y-90630400D02*
X147361200Y-93570400D01*
X147481200Y-90630400D02*
X147481200Y-93570400D01*
X147601200Y-90630400D02*
X147601200Y-93570400D01*
X152021200Y-90630400D02*
X146581200Y-90630400D01*
X152021200Y-93570400D02*
X152021200Y-90630400D01*
X153041200Y-92100400D02*
X152021200Y-92100400D01*
%TO.C,J3*%
X209286000Y-71950000D02*
G75*
G02*
X204714000Y-71950000I-2286000J0D01*
G01*
X204714000Y-71950000D02*
G75*
G02*
X209286000Y-71950000I2286000J0D01*
G01*
%TD*%
M02*
